<?xml version="1.0" encoding="iso-8859-1"?>
<!-- Generator: Adobe Illustrator 19.0.0, SVG Export Plug-In . SVG Version: 6.00 Build 0)  -->
<svg width="64" height="64" version="1.1" id="Capa_1" xmlns="http://www.w3.org/2000/svg" xmlns:xlink="http://www.w3.org/1999/xlink" x="0px" y="0px"
	 viewBox="0 0 512 500" style="enable-background:new 0 0 64 64;" xml:space="preserve">
<path style="fill:#DD352E;" d="M443.733,183.465c0-101.137-83.789-182.707-185.737-179.081
	C160.887,7.832,85.333,90.588,85.333,187.757l0,0c0,36.087,11.102,71.296,31.795,100.855l147.405,210.586l147.405-210.586
	c20.693-29.559,31.795-64.768,31.795-100.855V183.465z"/>
<path style="fill:#6C342A;" d="M332.8,217.598H196.267c-14.14,0-25.6-11.46-25.6-25.6l0,0c0-14.14,11.46-25.6,25.6-25.6H332.8
	c14.14,0,25.6,11.46,25.6,25.6l0,0C358.4,206.138,346.94,217.598,332.8,217.598z"/>
<g>
	<path style="fill:#FBCE9D;" d="M358.409,268.798h-187.75c-9.421,0-17.058-7.637-17.058-17.058v-17.084
		c0-9.421,7.637-17.058,17.058-17.058h187.75c9.421,0,17.058,7.637,17.058,17.058v17.084
		C375.467,261.161,367.829,268.798,358.409,268.798z"/>
	<path style="fill:#FBCE9D;" d="M375.467,166.398H153.6v-17.075c0-37.7,30.558-68.258,68.258-68.258h85.35
		c37.7,0,68.258,30.558,68.258,68.258v17.075H375.467z"/>
</g>
<g>
	<path style="fill:#DC691D;" d="M204.8,132.265c-2.185,0-4.369-0.836-6.033-2.5c-3.337-3.337-3.337-8.73,0-12.066l8.533-8.533
		c3.337-3.337,8.73-3.337,12.066,0c3.337,3.337,3.337,8.73,0,12.066l-8.533,8.533C209.169,131.429,206.985,132.265,204.8,132.265z"
		/>
	<path style="fill:#DC691D;" d="M315.733,132.265c-2.185,0-4.369-0.836-6.033-2.5c-3.337-3.337-3.337-8.73,0-12.066l8.533-8.533
		c3.337-3.337,8.73-3.337,12.066,0c3.337,3.337,3.337,8.73,0,12.066l-8.533,8.533C320.102,131.429,317.918,132.265,315.733,132.265z
		"/>
	<path style="fill:#DC691D;" d="M273.067,140.798c-2.185,0-4.369-0.836-6.033-2.5l-8.533-8.533c-3.337-3.337-3.337-8.73,0-12.066
		s8.73-3.337,12.066,0l8.533,8.533c3.337,3.337,3.337,8.73,0,12.066C277.436,139.962,275.251,140.798,273.067,140.798z"/>
</g>
<g>
</g>
<g>
</g>
<g>
</g>
<g>
</g>
<g>
</g>
<g>
</g>
<g>
</g>
<g>
</g>
<g>
</g>
<g>
</g>
<g>
</g>
<g>
</g>
<g>
</g>
<g>
</g>
<g>
</g>
</svg>
